<svg
              id="Layer_1"
              data-name="Layer 1"
              xmlns="http://www.w3.org/2000/svg"
              viewBox="0 0 606.84 86.32"
            >
              <defs>
                <style>
                  .cls-1,
                  .cls-2 {
                    fill: #fff;
                  }
                  .cls-1 {
                    fill-rule: evenodd;
                  }
                </style>
              </defs>
              <path
                class="cls-1"
                d="M225.29,336.37c17.51,0,29-13.55,29-29.57s-11.48-29.32-29-29.32-29,13.35-29,29.32,11.48,29.57,29,29.57Zm0-11.9h0c-10.42,0-14.62-8.39-14.62-17.67s4.2-17.38,14.62-17.38,14.61,8.1,14.61,17.38S235.76,324.47,225.29,324.47Z"
                transform="translate(-117.53 -254.48)"
              />
              <path
                class="cls-1"
                d="M262.65,335H276V311.05c0-14.38,6.73-20.39,13.19-20.39a11,11,0,0,1,6.18,1.93l6.28-11.32a14.49,14.49,0,0,0-10.36-4.08,16.11,16.11,0,0,0-15.19,10.71v-9.53H262.65Z"
                transform="translate(-117.53 -254.48)"
              />
              <path
                class="cls-1"
                d="M330.26,336.12c9.51,0,17-3.34,23.19-10.2L344,317.59a17.15,17.15,0,0,1-13.58,6c-8.88,0-13-5-14.13-12.41H355a22,22,0,0,0,.52-5.43c0-12.64-6.4-28.55-26.19-28.55-19.14,0-27.74,14.94-27.74,29.67,0,15.25,9.18,29.24,28.63,29.24Zm-14-34.91h0c1.29-7.07,4.85-12.4,13-12.4,6,0,10.87,3,12.28,8.83a12.8,12.8,0,0,1,.44,3.57Z"
                transform="translate(-117.53 -254.48)"
              />
              <polygon
                class="cls-1"
                points="238.03 80.49 254.85 80.49 266.56 61.45 278.28 80.49 295.21 80.49 275.73 51.94 295.21 23.89 278.28 23.89 266.56 42.52 254.85 23.89 238.03 23.89 257.4 51.94 238.03 80.49"
              />
              <path
                class="cls-1"
                d="M524.43,336.1c17.51,0,29-13.55,29-29.57s-11.48-29.32-29-29.32-29,13.35-29,29.32,11.48,29.57,29,29.57Zm0-11.9h0c-10.42,0-14.62-8.39-14.62-17.67s4.2-17.38,14.62-17.38S539,297.25,539,306.53,534.9,324.2,524.43,324.2Z"
                transform="translate(-117.53 -254.48)"
              />
              <path
                class="cls-1"
                d="M559.11,335h13.33V311.05c0-14.38,6.73-20.39,13.19-20.39a11,11,0,0,1,6.18,1.93l6.28-11.32a14.49,14.49,0,0,0-10.36-4.08,16.1,16.1,0,0,0-15.19,10.71v-9.53H559.11Z"
                transform="translate(-117.53 -254.48)"
              />
              <path
                class="cls-1"
                d="M630.53,336.12a32.24,32.24,0,0,0,10.3-1.7v-12.5a19.71,19.71,0,0,1-7.86,2c-3.64,0-6.29-1.59-6.29-7V290h14.15V278.39H626.68V254.48l-13.57,9.85v14.06h-9.33V290h9.1v29.41C612.88,329.67,619.49,336.12,630.53,336.12Z"
                transform="translate(-117.53 -254.48)"
              />
              <path
                class="cls-1"
                d="M673.73,277.21c-11.19,0-18.38,5-23.81,12.39l10.57,7.65c2.44-4.13,6.83-8,13.34-8,9,0,11.54,3.56,11.81,11.94H670.25c-12.7,0-22.53,4.08-22.53,16.38,0,11.88,8.95,18.53,20.56,18.53,6.46,0,14-2.82,17.71-8.6l.85,7.44h11.32V300.65c0-13.82-9-23.44-24.43-23.44Zm-2.68,47.32h0c-6.19,0-9.19-2.67-9.19-6.44,0-3.6,2.88-6.9,9.19-6.9H685.7v.44A14.41,14.41,0,0,1,671.05,324.53Z"
                transform="translate(-117.53 -254.48)"
              />
              <rect
                class="cls-2"
                x="591.54"
                y="0.48"
                width="15.3"
                height="80"
              />
              <path
                class="cls-1"
                d="M453.53,324.16V301.78h10.83c16.31,0,28.25-8.22,28.25-23.16,0-15.12-11.94-23.66-28.25-23.66H439.27v80c8.29,0,14.22-3.1,14.26-10.8Zm0-35.8h0v-20h10.83c9.74,0,14,3.73,14,10.24,0,6.34-4.14,9.74-14,9.74Z"
                transform="translate(-117.53 -254.48)"
              />
              <path
                class="cls-1"
                d="M189.22,287.37h0a17.26,17.26,0,0,1-.4,1.85,17.26,17.26,0,0,0,.4-1.85Zm-53.54,10.37h52l-.17,1-.75,4.46h0a10.49,10.49,0,0,1-1.7,4.67,5.69,5.69,0,0,1-4.88,2.13H149.62l-5.28,23c-2,9.73-12.16,9.49-18.35,4l6.81-27H121.58a5.28,5.28,0,0,1-3-.67,2.58,2.58,0,0,1-.94-2.83h0l1.39-8.2.09-.58h16.6Z"
                transform="translate(-117.53 -254.48)"
              />
              <path
                class="cls-1"
                d="M163.38,271.14h12.14c6.17,0,9.55-1,11.63-3.5s2.73-6.19,3.55-11.71l.14-1H163.76c-5.27,0-9.81,1.06-13.39,3.4s-6.2,6-7.6,11.12L140,279.61H122.14l-.1.58-1.39,8.21a2.58,2.58,0,0,0,.95,2.83,5.33,5.33,0,0,0,3,.66h58.59a5.71,5.71,0,0,0,4.88-2.13c1.6-2.1,2-6.45,2.44-9.12l.18-1H156.35l.57-2.78a7.9,7.9,0,0,1,1.93-4.26A6.15,6.15,0,0,1,163.38,271.14Z"
                transform="translate(-117.53 -254.48)"
              />
            </svg>
